<?xml version="1.0" encoding="UTF-8" standalone="no"?>
<!-- Generator: Adobe Illustrator 16.0.0, SVG Export Plug-In . SVG Version: 6.00 Build 0)  -->

<svg
   xmlns:dc="http://purl.org/dc/elements/1.1/"
   xmlns:cc="http://creativecommons.org/ns#"
   xmlns:rdf="http://www.w3.org/1999/02/22-rdf-syntax-ns#"
   xmlns:svg="http://www.w3.org/2000/svg"
   xmlns="http://www.w3.org/2000/svg"
   xmlns:sodipodi="http://sodipodi.sourceforge.net/DTD/sodipodi-0.dtd"
   xmlns:inkscape="http://www.inkscape.org/namespaces/inkscape"
   version="1.1"
   id="Layer_1"
   x="0px"
   y="0px"
   width="156"
   height="167.72501"
   viewBox="0 0 155.99999 167.725"
   enable-background="new 0 0 1172.941 167.725"
   xml:space="preserve"
   inkscape:version="0.48.0 r9654"
   sodipodi:docname="squid.svg"><metadata
   id="metadata235"><rdf:RDF><cc:Work
       rdf:about=""><dc:format>image/svg+xml</dc:format><dc:type
         rdf:resource="http://purl.org/dc/dcmitype/StillImage" /><dc:title /></cc:Work></rdf:RDF></metadata><defs
   id="defs233" /><sodipodi:namedview
   pagecolor="#ffffff"
   bordercolor="#666666"
   borderopacity="1"
   objecttolerance="10"
   gridtolerance="10"
   guidetolerance="10"
   inkscape:pageopacity="0"
   inkscape:pageshadow="2"
   inkscape:window-width="1920"
   inkscape:window-height="1017"
   id="namedview231"
   showgrid="false"
   inkscape:zoom="9.9843478"
   inkscape:cx="79.908258"
   inkscape:cy="89.532045"
   inkscape:window-x="-8"
   inkscape:window-y="-8"
   inkscape:window-maximized="1"
   inkscape:current-layer="Layer_1" />


<g
   id="g79">
	<path
   d="M 542.465,49.095 C 534.084,38.2 499.747,0.002 484.799,0.002 V 0.005 0.002 c -14.941,0 -49.283,38.198 -57.662,49.093 -20.625,26.816 -21.504,39.375 -19.951,45.229 2.807,10.559 14.658,11.646 32.398,11.734 2.447,6.371 2.391,16.105 1.66,19.25 -0.137,0.301 -0.314,0.645 -0.514,1.039 -7.377,14.684 -3.875,24.918 8.898,34.689 2.43,1.859 5.168,3.4 5.168,3.4 0,0 2.266,-0.793 4.592,-2.953 1.863,-1.73 3.803,-5.129 4.236,-7.559 1.975,10.053 11.855,13.799 11.855,13.799 0,0 8.246,-2.75 9.318,-11.281 1.074,8.531 9.322,11.281 9.322,11.281 0,0 9.879,-3.746 11.855,-13.799 0.434,2.43 2.371,5.828 4.234,7.559 2.328,2.16 4.592,2.953 4.592,2.953 0,0 2.738,-1.541 5.168,-3.4 12.774,-9.771 16.277,-20.006 8.899,-34.689 -0.198,-0.395 -0.38,-0.738 -0.514,-1.039 -0.731,-3.145 -0.788,-12.879 1.661,-19.25 17.741,-0.088 29.59,-1.176 32.395,-11.734 1.559,-5.854 0.681,-18.413 -19.944,-45.229"
   id="path81"
   inkscape:connector-curvature="0"
   style="fill:#fa5a00" />
	<path
   d="m 511.475,144.468 c -3.016,-0.721 -5.871,1.021 -6.117,4.168 -0.211,2.67 0.889,5.197 3.904,5.92 3.023,0.721 5.779,-0.264 6.84,-2.723 1.348,-3.129 -1.607,-6.645 -4.627,-7.365"
   id="path83"
   inkscape:connector-curvature="0" />
	<path
   d="m 508.803,128.821 c -0.611,-2.791 -4.377,-3.418 -6.898,-2.072 -2.52,1.344 -3.822,3.945 -2.223,6.941 1.16,2.178 3.119,3.395 6.662,1.504 2.52,-1.347 2.992,-3.963 2.459,-6.373"
   id="path85"
   inkscape:connector-curvature="0" />
	<path
   d="m 523.768,129.923 c -4.834,-0.842 -8.775,4.471 -8.775,8.941 0,4.469 3.396,7.881 7.885,7.18 3.812,-0.596 6.989,-2.982 6.989,-7.451 0,-4.471 -2.3,-8.008 -6.099,-8.67"
   id="path87"
   inkscape:connector-curvature="0" />
	<path
   d="m 522.813,125.415 c 1.779,-1.25 2.301,-3.793 0.988,-5.949 -1.312,-2.152 -3.41,-3.082 -5.742,-1.852 -2.072,1.098 -2.982,4.213 -1.67,6.365 1.311,2.155 4.596,2.721 6.424,1.436"
   id="path89"
   inkscape:connector-curvature="0" />
	<path
   d="m 466.676,133.048 c 2.32,-1.238 2.754,-3.648 2.262,-5.867 -0.562,-2.566 -4.027,-3.145 -6.348,-1.908 -2.322,1.238 -3.52,3.635 -2.047,6.393 1.069,2.001 2.87,3.122 6.133,1.382"
   id="path91"
   inkscape:connector-curvature="0" />
	<path
   d="m 481.211,131.392 c -3.352,-0.584 -6.09,3.104 -6.09,6.207 0,3.103 2.361,5.471 5.475,4.986 2.646,-0.418 4.854,-2.072 4.854,-5.176 0,-3.104 -1.6,-5.558 -4.239,-6.017"
   id="path93"
   inkscape:connector-curvature="0" />
	<path
   d="m 492.747,123.048 c -1.258,-2.062 -3.266,-2.955 -5.502,-1.775 -1.986,1.053 -2.857,4.039 -1.602,6.104 1.258,2.064 4.404,2.605 6.156,1.375 1.707,-1.2 2.205,-3.636 0.948,-5.704"
   id="path95"
   inkscape:connector-curvature="0" />
	<path
   d="m 471.329,142.571 c -4.127,-0.986 -8.023,1.4 -8.365,5.697 -0.289,3.65 1.213,7.109 5.34,8.094 4.129,0.982 7.898,-0.361 9.348,-3.723 1.837,-4.275 -2.196,-9.079 -6.323,-10.068"
   id="path97"
   inkscape:connector-curvature="0" />
	<path
   d="m 493.309,145.403 c -2.006,-0.562 -3.703,1.645 -3.703,3.729 0,2.086 1.229,3.816 3.703,3.816 1.801,0 3.256,-0.844 3.256,-3.773 0,-2.08 -1.523,-3.283 -3.256,-3.772"
   id="path99"
   inkscape:connector-curvature="0" />
	<path
   d="m 445.825,131.392 c -3.354,-0.584 -6.088,3.104 -6.088,6.207 0,3.103 2.359,5.471 5.475,4.986 2.643,-0.418 4.852,-2.072 4.852,-5.176 0,-3.104 -1.599,-5.558 -4.239,-6.017"
   id="path101"
   inkscape:connector-curvature="0" />
	<path
   d="m 452.032,119.466 c -1.311,-2.152 -3.408,-3.084 -5.74,-1.852 -2.07,1.098 -2.982,4.213 -1.67,6.365 1.311,2.154 4.596,2.721 6.424,1.436 1.777,-1.25 2.3,-3.793 0.986,-5.949"
   id="path103"
   inkscape:connector-curvature="0" />
	<path
   d="m 455.143,143.028 c -2.133,-0.6 -3.936,1.746 -3.936,3.961 0,2.213 1.303,4.053 3.936,4.053 1.91,0 3.459,-0.895 3.459,-4.008 0,-2.213 -1.619,-3.492 -3.459,-4.006"
   id="path105"
   inkscape:connector-curvature="0" />
	<path
   d="m 499.708,61.267 c -9.043,0.771 -11.434,4.559 -14.908,4.559 -3.473,0 -5.859,-3.787 -14.904,-4.559 -17.957,-1.549 -26.594,12.287 -26.594,26.016 0,14.588 10.215,26.412 22.816,26.412 11.961,0 13.072,-4.965 18.682,-4.965 5.613,0 6.727,4.965 18.688,4.965 12.6,0 22.816,-11.824 22.816,-26.412 -10e-4,-13.729 -8.639,-27.565 -26.596,-26.016"
   id="path107"
   inkscape:connector-curvature="0"
   style="fill:#ffffff" />
	<path
   d="M 542.465,49.095 C 534.085,38.2 499.746,0.001 484.799,0.001 c -14.941,0 -49.283,38.199 -57.662,49.094 -20.625,26.814 -21.504,39.375 -19.951,45.229 2.807,10.561 14.656,11.646 32.398,11.736 2.445,6.369 2.391,16.102 1.662,19.248 -0.139,0.301 -0.316,0.645 -0.516,1.039 -7.377,14.682 -3.875,24.918 8.898,34.688 2.43,1.861 5.168,3.402 5.168,3.402 0,0 2.266,-0.793 4.59,-2.953 1.865,-1.73 3.805,-5.129 4.238,-7.559 1.975,10.053 11.855,13.799 11.855,13.799 0,0 8.246,-2.75 9.318,-11.281 1.076,8.531 9.322,11.281 9.322,11.281 0,0 9.879,-3.746 11.855,-13.799 0.434,2.43 2.371,5.828 4.234,7.559 2.328,2.16 4.592,2.953 4.592,2.953 0,0 2.738,-1.541 5.168,-3.402 12.774,-9.77 16.278,-20.006 8.899,-34.688 -0.197,-0.395 -0.38,-0.738 -0.515,-1.039 -0.73,-3.146 -0.787,-12.879 1.662,-19.248 17.741,-0.09 29.589,-1.176 32.395,-11.736 1.559,-5.854 0.68,-18.415 -19.944,-45.229 m 11.55,41.47 c -2.216,8.346 -27.552,9.801 -27.552,9.801 0,0 -8.443,18.266 -5.854,27.357 1.008,3.545 11.535,16.125 -5.828,27.131 0,0 -9.771,-6.127 -10.301,-18.576 0.076,1.291 0.85,18.104 -10.158,22.176 -0.01,-0.002 -9.512,-2.016 -9.523,-21.008 -0.012,18.992 -9.516,21.006 -9.52,21.008 -11.006,-4.072 -10.234,-20.885 -10.158,-22.176 -0.529,12.449 -10.303,18.576 -10.303,18.576 -17.363,-11.006 -6.836,-23.586 -5.83,-27.131 2.594,-9.092 -5.852,-27.357 -5.852,-27.357 0,0 -25.338,-1.455 -27.553,-9.801 -4.822,-18.15 57.527,-84.939 69.215,-84.939 11.683,0 74.038,66.789 69.217,84.939"
   id="path109"
   inkscape:connector-curvature="0" />
	<path
   d="m 499.708,61.267 c -9.043,0.771 -11.434,4.559 -14.908,4.559 -3.473,0 -5.859,-3.787 -14.904,-4.559 -17.957,-1.549 -26.594,12.287 -26.594,26.016 0,14.588 10.215,26.412 22.816,26.412 11.961,0 13.072,-4.965 18.682,-4.965 5.613,0 6.727,4.965 18.688,4.965 12.6,0 22.816,-11.824 22.816,-26.412 -10e-4,-13.729 -8.639,-27.565 -26.596,-26.016 m 2.677,44.703 c -7.756,0 -14.443,-4.861 -17.586,-11.887 -3.139,7.025 -9.828,11.887 -17.582,11.887 -10.762,0 -19.492,-9.367 -19.492,-20.912 0,-11.549 8.73,-20.912 19.492,-20.912 7.754,0 14.443,4.861 17.582,11.889 3.143,-7.027 9.83,-11.889 17.586,-11.889 10.766,0 19.492,9.363 19.492,20.912 0,11.545 -8.726,20.912 -19.492,20.912"
   id="path111"
   inkscape:connector-curvature="0" />
	<path
   d="m 468.715,89.177 c -6.371,0 -11.535,-4.877 -11.535,-10.891 0,-6.016 5.164,-10.893 11.535,-10.893 6.369,0 11.531,4.877 11.531,10.893 0.001,6.014 -5.162,10.891 -11.531,10.891"
   id="path113"
   inkscape:connector-curvature="0" />
	<path
   d="m 500.887,89.177 c -6.369,0 -11.535,-4.877 -11.535,-10.891 0,-6.016 5.166,-10.893 11.535,-10.893 6.371,0 11.533,4.877 11.533,10.893 0,6.014 -5.162,10.891 -11.533,10.891"
   id="path115"
   inkscape:connector-curvature="0" />
</g>
<g
   id="g117">
	<path
   d="M 745.807,49.093 C 737.426,38.199 703.087,0.001 688.14,0.001 V 0.004 0.001 c -14.94,0 -49.283,38.198 -57.66,49.092 -20.625,26.816 -21.504,39.375 -19.951,45.229 2.805,10.559 14.656,11.646 32.396,11.734 2.447,6.37 2.391,16.104 1.661,19.249 -0.137,0.301 -0.315,0.646 -0.514,1.039 -7.378,14.685 -3.874,24.919 8.898,34.69 2.43,1.861 5.168,3.4 5.168,3.4 0,0 2.266,-0.793 4.591,-2.953 1.863,-1.73 3.803,-5.129 4.236,-7.559 1.975,10.053 11.855,13.799 11.855,13.799 0,0 8.247,-2.75 9.318,-11.281 1.075,8.531 9.322,11.281 9.322,11.281 0,0 9.88,-3.746 11.856,-13.799 0.433,2.43 2.37,5.828 4.233,7.559 2.328,2.16 4.592,2.953 4.592,2.953 0,0 2.739,-1.539 5.168,-3.4 12.775,-9.771 16.278,-20.006 8.9,-34.69 -0.198,-0.394 -0.38,-0.738 -0.514,-1.039 -0.732,-3.145 -0.789,-12.879 1.661,-19.249 17.741,-0.089 29.59,-1.176 32.395,-11.734 1.559,-5.854 0.681,-18.413 -19.944,-45.229"
   id="path119"
   inkscape:connector-curvature="0"
   style="fill:#0032fa" />
	<path
   d="m 714.816,144.467 c -3.017,-0.721 -5.871,1.021 -6.118,4.168 -0.211,2.67 0.889,5.197 3.905,5.92 3.022,0.721 5.778,-0.264 6.839,-2.723 1.349,-3.129 -1.606,-6.644 -4.626,-7.365"
   id="path121"
   inkscape:connector-curvature="0" />
	<path
   d="m 712.145,128.82 c -0.612,-2.791 -4.377,-3.418 -6.899,-2.073 -2.52,1.345 -3.821,3.945 -2.223,6.942 1.16,2.178 3.12,3.395 6.662,1.503 2.52,-1.346 2.992,-3.962 2.46,-6.372"
   id="path123"
   inkscape:connector-curvature="0" />
	<path
   d="m 727.108,129.922 c -4.833,-0.843 -8.775,4.471 -8.775,8.941 0,4.469 3.396,7.881 7.885,7.18 3.812,-0.596 6.99,-2.982 6.99,-7.451 0,-4.471 -2.301,-8.009 -6.1,-8.67"
   id="path125"
   inkscape:connector-curvature="0" />
	<path
   d="m 726.154,125.414 c 1.778,-1.25 2.301,-3.793 0.987,-5.949 -1.312,-2.153 -3.409,-3.083 -5.741,-1.853 -2.072,1.099 -2.983,4.213 -1.67,6.365 1.311,2.156 4.596,2.721 6.424,1.437"
   id="path127"
   inkscape:connector-curvature="0" />
	<path
   d="m 670.018,133.047 c 2.32,-1.239 2.753,-3.649 2.262,-5.867 -0.563,-2.567 -4.028,-3.146 -6.348,-1.908 -2.323,1.238 -3.521,3.634 -2.048,6.392 1.069,2.001 2.87,3.123 6.134,1.383"
   id="path129"
   inkscape:connector-curvature="0" />
	<path
   d="m 684.553,131.391 c -3.352,-0.585 -6.09,3.103 -6.09,6.207 0,3.104 2.36,5.471 5.474,4.986 2.646,-0.418 4.854,-2.072 4.854,-5.176 0,-3.104 -1.601,-5.558 -4.238,-6.017"
   id="path131"
   inkscape:connector-curvature="0" />
	<path
   d="m 696.088,123.047 c -1.258,-2.062 -3.267,-2.955 -5.502,-1.775 -1.987,1.052 -2.858,4.038 -1.602,6.103 1.256,2.065 4.403,2.605 6.155,1.376 1.708,-1.2 2.207,-3.637 0.949,-5.704"
   id="path133"
   inkscape:connector-curvature="0" />
	<path
   d="m 674.669,142.57 c -4.126,-0.986 -8.023,1.4 -8.364,5.697 -0.29,3.65 1.213,7.109 5.34,8.094 4.128,0.984 7.898,-0.359 9.348,-3.723 1.837,-4.275 -2.196,-9.079 -6.324,-10.068"
   id="path135"
   inkscape:connector-curvature="0" />
	<path
   d="m 696.65,145.402 c -2.006,-0.562 -3.703,1.645 -3.703,3.729 0,2.086 1.228,3.818 3.703,3.818 1.801,0 3.256,-0.846 3.256,-3.775 0,-2.08 -1.524,-3.283 -3.256,-3.772"
   id="path137"
   inkscape:connector-curvature="0" />
	<path
   d="m 649.166,131.391 c -3.354,-0.585 -6.089,3.103 -6.089,6.207 0,3.104 2.359,5.471 5.476,4.986 2.643,-0.418 4.851,-2.072 4.851,-5.176 -10e-4,-3.104 -1.598,-5.558 -4.238,-6.017"
   id="path139"
   inkscape:connector-curvature="0" />
	<path
   d="m 655.372,119.464 c -1.31,-2.152 -3.408,-3.083 -5.739,-1.852 -2.071,1.098 -2.983,4.214 -1.671,6.365 1.311,2.154 4.597,2.721 6.425,1.436 1.777,-1.249 2.301,-3.792 0.985,-5.949"
   id="path141"
   inkscape:connector-curvature="0" />
	<path
   d="m 658.483,143.027 c -2.132,-0.6 -3.936,1.746 -3.936,3.961 0,2.213 1.303,4.053 3.936,4.053 1.911,0 3.459,-0.895 3.459,-4.008 0,-2.213 -1.619,-3.492 -3.459,-4.006"
   id="path143"
   inkscape:connector-curvature="0" />
	<path
   d="m 703.049,61.265 c -9.043,0.772 -11.435,4.559 -14.909,4.559 -3.473,0 -5.858,-3.786 -14.903,-4.559 -17.957,-1.548 -26.595,12.288 -26.595,26.016 0,14.588 10.215,26.412 22.816,26.412 11.961,0 13.073,-4.965 18.682,-4.965 5.614,0 6.727,4.965 18.688,4.965 12.601,0 22.816,-11.824 22.816,-26.412 0,-13.728 -8.639,-27.564 -26.595,-26.016"
   id="path145"
   inkscape:connector-curvature="0"
   style="fill:#ffffff" />
	<path
   d="M 745.807,49.093 C 737.427,38.198 703.088,0 688.14,0 673.2,0 638.857,38.198 630.478,49.093 c -20.623,26.815 -21.502,39.376 -19.949,45.229 2.807,10.561 14.656,11.646 32.396,11.736 2.446,6.37 2.391,16.103 1.662,19.248 -0.138,0.301 -0.316,0.645 -0.515,1.039 -7.378,14.683 -3.874,24.919 8.897,34.69 2.431,1.861 5.168,3.4 5.168,3.4 0,0 2.267,-0.791 4.591,-2.953 1.865,-1.73 3.804,-5.129 4.238,-7.557 1.974,10.053 11.854,13.799 11.854,13.799 0,0 8.247,-2.752 9.318,-11.283 1.076,8.531 9.323,11.283 9.323,11.283 0,0 9.879,-3.746 11.854,-13.799 0.434,2.428 2.371,5.826 4.235,7.557 2.327,2.162 4.591,2.953 4.591,2.953 0,0 2.739,-1.539 5.168,-3.4 12.775,-9.771 16.279,-20.008 8.9,-34.69 -0.197,-0.395 -0.38,-0.738 -0.515,-1.039 -0.731,-3.146 -0.788,-12.878 1.662,-19.248 17.741,-0.09 29.589,-1.176 32.395,-11.736 1.559,-5.853 0.68,-18.414 -19.944,-45.229 m 11.549,41.471 c -2.216,8.346 -27.553,9.8 -27.553,9.8 0,0 -8.443,18.267 -5.854,27.358 1.009,3.544 11.536,16.125 -5.827,27.131 0,0 -9.772,-6.127 -10.302,-18.576 0.076,1.291 0.85,18.105 -10.157,22.176 -0.011,-0.002 -9.512,-2.014 -9.524,-21.008 -0.011,18.994 -9.515,21.006 -9.52,21.008 -11.006,-4.07 -10.234,-20.885 -10.158,-22.176 -0.528,12.449 -10.302,18.576 -10.302,18.576 -17.364,-11.006 -6.837,-23.587 -5.83,-27.131 2.594,-9.092 -5.853,-27.358 -5.853,-27.358 0,0 -25.336,-1.454 -27.553,-9.8 -4.82,-18.151 57.528,-84.94 69.215,-84.94 11.684,0 74.04,66.789 69.218,84.94"
   id="path147"
   inkscape:connector-curvature="0" />
	<path
   d="m 703.049,61.265 c -9.043,0.772 -11.435,4.56 -14.909,4.56 -3.473,0 -5.858,-3.787 -14.903,-4.56 -17.957,-1.548 -26.595,12.288 -26.595,26.017 0,14.587 10.215,26.411 22.816,26.411 11.961,0 13.073,-4.965 18.682,-4.965 5.614,0 6.727,4.965 18.688,4.965 12.601,0 22.816,-11.824 22.816,-26.411 0,-13.729 -8.639,-27.565 -26.595,-26.017 m 2.678,44.703 c -7.757,0 -14.444,-4.86 -17.587,-11.886 -3.138,7.025 -9.828,11.886 -17.581,11.886 -10.763,0 -19.493,-9.366 -19.493,-20.912 0,-11.548 8.73,-20.911 19.493,-20.911 7.753,0 14.443,4.861 17.581,11.888 3.143,-7.026 9.83,-11.888 17.587,-11.888 10.766,0 19.492,9.363 19.492,20.911 0,11.546 -8.727,20.912 -19.492,20.912"
   id="path149"
   inkscape:connector-curvature="0" />
	<path
   d="m 672.056,89.175 c -6.37,0 -11.534,-4.877 -11.534,-10.89 0,-6.017 5.164,-10.893 11.534,-10.893 6.369,0 11.532,4.876 11.532,10.893 0,6.013 -5.163,10.89 -11.532,10.89"
   id="path151"
   inkscape:connector-curvature="0" />
	<path
   d="m 704.229,89.175 c -6.369,0 -11.535,-4.877 -11.535,-10.89 0,-6.017 5.166,-10.893 11.535,-10.893 6.371,0 11.532,4.876 11.532,10.893 0,6.013 -5.161,10.89 -11.532,10.89"
   id="path153"
   inkscape:connector-curvature="0" />
</g>
<g
   id="g155">
	<path
   d="M 949.148,49.094 C 940.767,38.2 906.428,0.002 891.481,0.002 V 0.005 0.002 c -14.94,0 -49.283,38.198 -57.661,49.092 -20.625,26.816 -21.504,39.375 -19.951,45.229 2.806,10.559 14.657,11.646 32.397,11.734 2.447,6.37 2.391,16.104 1.661,19.249 -0.137,0.301 -0.315,0.646 -0.514,1.039 -7.378,14.684 -3.875,24.918 8.898,34.689 2.43,1.86 5.168,3.4 5.168,3.4 0,0 2.266,-0.793 4.591,-2.953 1.863,-1.73 3.803,-5.129 4.236,-7.559 1.975,10.053 11.855,13.799 11.855,13.799 0,0 8.247,-2.75 9.318,-11.281 1.075,8.531 9.322,11.281 9.322,11.281 0,0 9.88,-3.746 11.856,-13.799 0.433,2.43 2.37,5.828 4.233,7.559 2.328,2.16 4.592,2.953 4.592,2.953 0,0 2.739,-1.54 5.168,-3.4 12.775,-9.771 16.278,-20.006 8.9,-34.689 -0.198,-0.394 -0.38,-0.738 -0.514,-1.039 -0.732,-3.145 -0.789,-12.879 1.661,-19.249 17.741,-0.089 29.59,-1.176 32.395,-11.734 1.559,-5.854 0.681,-18.413 -19.944,-45.229"
   id="path157"
   inkscape:connector-curvature="0"
   style="fill:#00c8b4" />
	<path
   d="m 918.158,144.467 c -3.017,-0.72 -5.871,1.021 -6.118,4.168 -0.211,2.67 0.889,5.197 3.905,5.92 3.022,0.721 5.778,-0.264 6.839,-2.723 1.349,-3.129 -1.606,-6.644 -4.626,-7.365"
   id="path159"
   inkscape:connector-curvature="0" />
	<path
   d="m 915.486,128.821 c -0.612,-2.791 -4.377,-3.418 -6.899,-2.073 -2.52,1.345 -3.821,3.945 -2.223,6.942 1.16,2.178 3.12,3.394 6.662,1.503 2.521,-1.346 2.993,-3.962 2.46,-6.372"
   id="path161"
   inkscape:connector-curvature="0" />
	<path
   d="m 930.45,129.923 c -4.833,-0.843 -8.775,4.471 -8.775,8.94 0,4.469 3.396,7.882 7.885,7.181 3.812,-0.597 6.99,-2.983 6.99,-7.452 0,-4.47 -2.301,-8.008 -6.1,-8.669"
   id="path163"
   inkscape:connector-curvature="0" />
	<path
   d="m 929.496,125.415 c 1.778,-1.25 2.301,-3.793 0.987,-5.949 -1.312,-2.153 -3.409,-3.083 -5.741,-1.853 -2.072,1.099 -2.983,4.213 -1.67,6.365 1.311,2.156 4.596,2.721 6.424,1.437"
   id="path165"
   inkscape:connector-curvature="0" />
	<path
   d="m 873.359,133.048 c 2.32,-1.239 2.753,-3.649 2.262,-5.867 -0.563,-2.567 -4.028,-3.146 -6.348,-1.908 -2.323,1.238 -3.521,3.634 -2.048,6.392 1.07,2.001 2.871,3.123 6.134,1.383"
   id="path167"
   inkscape:connector-curvature="0" />
	<path
   d="m 887.895,131.392 c -3.352,-0.585 -6.09,3.103 -6.09,6.206 0,3.103 2.36,5.472 5.474,4.986 2.646,-0.417 4.854,-2.072 4.854,-5.175 0,-3.104 -1.601,-5.558 -4.238,-6.017"
   id="path169"
   inkscape:connector-curvature="0" />
	<path
   d="m 899.43,123.048 c -1.258,-2.062 -3.267,-2.955 -5.502,-1.775 -1.987,1.052 -2.858,4.038 -1.602,6.103 1.256,2.065 4.403,2.605 6.155,1.376 1.707,-1.2 2.207,-3.637 0.949,-5.704"
   id="path171"
   inkscape:connector-curvature="0" />
	<path
   d="m 878.011,142.57 c -4.126,-0.985 -8.023,1.4 -8.364,5.698 -0.29,3.649 1.213,7.108 5.34,8.093 4.128,0.983 7.898,-0.36 9.348,-3.723 1.837,-4.275 -2.196,-9.079 -6.324,-10.068"
   id="path173"
   inkscape:connector-curvature="0" />
	<path
   d="m 899.992,145.403 c -2.006,-0.563 -3.703,1.645 -3.703,3.728 0,2.087 1.228,3.817 3.703,3.817 1.801,0 3.256,-0.845 3.256,-3.774 0,-2.08 -1.524,-3.283 -3.256,-3.771"
   id="path175"
   inkscape:connector-curvature="0" />
	<path
   d="m 852.508,131.392 c -3.354,-0.585 -6.089,3.103 -6.089,6.206 0,3.103 2.359,5.472 5.476,4.986 2.643,-0.417 4.851,-2.072 4.851,-5.175 -10e-4,-3.104 -1.599,-5.558 -4.238,-6.017"
   id="path177"
   inkscape:connector-curvature="0" />
	<path
   d="m 858.714,119.465 c -1.31,-2.152 -3.408,-3.083 -5.739,-1.852 -2.071,1.098 -2.983,4.214 -1.671,6.365 1.311,2.154 4.597,2.721 6.425,1.436 1.777,-1.249 2.3,-3.792 0.985,-5.949"
   id="path179"
   inkscape:connector-curvature="0" />
	<path
   d="m 861.825,143.027 c -2.132,-0.599 -3.936,1.747 -3.936,3.961 0,2.213 1.303,4.053 3.936,4.053 1.911,0 3.459,-0.894 3.459,-4.007 0,-2.214 -1.619,-3.492 -3.459,-4.007"
   id="path181"
   inkscape:connector-curvature="0" />
	<path
   d="m 906.391,61.266 c -9.043,0.772 -11.435,4.559 -14.909,4.559 -3.473,0 -5.858,-3.786 -14.903,-4.559 -17.957,-1.548 -26.595,12.288 -26.595,26.016 0,14.588 10.215,26.412 22.816,26.412 11.961,0 13.073,-4.965 18.682,-4.965 5.614,0 6.727,4.965 18.688,4.965 12.601,0 22.816,-11.824 22.816,-26.412 -10e-4,-13.728 -8.639,-27.564 -26.595,-26.016"
   id="path183"
   inkscape:connector-curvature="0"
   style="fill:#ffffff" />
	<path
   d="M 949.148,49.094 C 940.768,38.199 906.429,0.001 891.481,0.001 c -14.94,0 -49.283,38.198 -57.662,49.093 -20.624,26.815 -21.503,39.376 -19.95,45.229 2.807,10.561 14.656,11.646 32.397,11.736 2.446,6.37 2.391,16.103 1.662,19.248 -0.138,0.301 -0.316,0.645 -0.515,1.039 -7.378,14.683 -3.875,24.918 8.897,34.688 2.431,1.861 5.168,3.401 5.168,3.401 0,0 2.267,-0.792 4.591,-2.953 1.865,-1.73 3.804,-5.129 4.238,-7.558 1.974,10.053 11.854,13.799 11.854,13.799 0,0 8.247,-2.751 9.318,-11.282 1.076,8.531 9.323,11.282 9.323,11.282 0,0 9.879,-3.746 11.854,-13.799 0.434,2.429 2.371,5.827 4.235,7.558 2.327,2.161 4.591,2.953 4.591,2.953 0,0 2.739,-1.54 5.168,-3.401 12.775,-9.771 16.279,-20.006 8.9,-34.688 -0.197,-0.395 -0.38,-0.738 -0.515,-1.039 -0.731,-3.146 -0.788,-12.878 1.662,-19.248 17.741,-0.09 29.589,-1.176 32.395,-11.736 1.559,-5.853 0.68,-18.414 -19.944,-45.229 m 11.55,41.471 c -2.216,8.346 -27.553,9.8 -27.553,9.8 0,0 -8.443,18.267 -5.854,27.358 1.009,3.544 11.536,16.124 -5.827,27.13 0,0 -9.772,-6.126 -10.302,-18.576 0.076,1.291 0.85,18.104 -10.157,22.176 -0.011,-0.002 -9.512,-2.015 -9.524,-21.008 -0.011,18.993 -9.515,21.006 -9.52,21.008 -11.006,-4.071 -10.234,-20.885 -10.158,-22.176 -0.528,12.45 -10.302,18.576 -10.302,18.576 -17.364,-11.006 -6.837,-23.586 -5.83,-27.13 2.594,-9.092 -5.853,-27.358 -5.853,-27.358 0,0 -25.337,-1.454 -27.553,-9.8 -4.821,-18.151 57.528,-84.94 69.215,-84.94 11.684,0 74.04,66.789 69.218,84.94"
   id="path185"
   inkscape:connector-curvature="0" />
	<path
   d="m 906.391,61.266 c -9.043,0.772 -11.435,4.56 -14.909,4.56 -3.473,0 -5.858,-3.787 -14.903,-4.56 -17.957,-1.548 -26.595,12.288 -26.595,26.017 0,14.587 10.215,26.411 22.816,26.411 11.961,0 13.073,-4.965 18.682,-4.965 5.614,0 6.727,4.965 18.688,4.965 12.601,0 22.816,-11.824 22.816,-26.411 -10e-4,-13.729 -8.639,-27.565 -26.595,-26.017 m 2.677,44.703 c -7.757,0 -14.444,-4.86 -17.587,-11.886 -3.138,7.025 -9.828,11.886 -17.581,11.886 -10.763,0 -19.493,-9.366 -19.493,-20.912 0,-11.548 8.73,-20.911 19.493,-20.911 7.753,0 14.443,4.861 17.581,11.888 3.143,-7.026 9.83,-11.888 17.587,-11.888 10.766,0 19.492,9.363 19.492,20.911 0.001,11.546 -8.726,20.912 -19.492,20.912"
   id="path187"
   inkscape:connector-curvature="0" />
	<path
   d="m 875.397,89.176 c -6.37,0 -11.534,-4.877 -11.534,-10.89 0,-6.017 5.164,-10.893 11.534,-10.893 6.369,0 11.532,4.876 11.532,10.893 10e-4,6.013 -5.162,10.89 -11.532,10.89"
   id="path189"
   inkscape:connector-curvature="0" />
	<path
   d="m 907.57,89.176 c -6.369,0 -11.535,-4.877 -11.535,-10.89 0,-6.017 5.166,-10.893 11.535,-10.893 6.371,0 11.532,4.876 11.532,10.893 10e-4,6.013 -5.161,10.89 -11.532,10.89"
   id="path191"
   inkscape:connector-curvature="0" />
</g>
<g
   id="g193">
	<path
   d="M 1152.49,49.094 C 1144.109,38.2 1109.769,0.002 1094.822,0.002 V 0.005 0.002 c -14.939,0 -49.283,38.198 -57.66,49.092 -20.625,26.816 -21.504,39.375 -19.951,45.229 2.805,10.559 14.656,11.646 32.396,11.734 2.447,6.37 2.391,16.104 1.662,19.249 -0.137,0.301 -0.316,0.646 -0.514,1.039 -7.379,14.684 -3.875,24.918 8.898,34.689 2.43,1.86 5.168,3.4 5.168,3.4 0,0 2.266,-0.793 4.59,-2.953 1.863,-1.73 3.803,-5.129 4.236,-7.559 1.975,10.053 11.855,13.799 11.855,13.799 0,0 8.248,-2.75 9.318,-11.281 1.076,8.531 9.322,11.281 9.322,11.281 0,0 9.881,-3.746 11.857,-13.799 0.432,2.43 2.369,5.828 4.232,7.559 2.328,2.16 4.592,2.953 4.592,2.953 0,0 2.74,-1.54 5.168,-3.4 12.775,-9.771 16.279,-20.006 8.9,-34.689 -0.197,-0.394 -0.379,-0.738 -0.514,-1.039 -0.732,-3.145 -0.789,-12.879 1.662,-19.249 17.74,-0.089 29.59,-1.176 32.395,-11.734 1.558,-5.854 0.681,-18.413 -19.944,-45.229"
   id="path195"
   inkscape:connector-curvature="0"
   style="fill:#c800dc" />
	<path
   d="m 1121.5,144.467 c -3.018,-0.72 -5.871,1.021 -6.119,4.168 -0.211,2.67 0.889,5.197 3.906,5.92 3.021,0.721 5.777,-0.264 6.838,-2.723 1.35,-3.129 -1.605,-6.644 -4.625,-7.365"
   id="path197"
   inkscape:connector-curvature="0" />
	<path
   d="m 1118.828,128.821 c -0.613,-2.791 -4.377,-3.418 -6.9,-2.073 -2.52,1.345 -3.82,3.945 -2.223,6.942 1.16,2.178 3.121,3.394 6.662,1.503 2.522,-1.346 2.992,-3.962 2.461,-6.372"
   id="path199"
   inkscape:connector-curvature="0" />
	<path
   d="m 1133.791,129.923 c -4.832,-0.843 -8.775,4.471 -8.775,8.94 0,4.469 3.396,7.882 7.885,7.181 3.812,-0.597 6.99,-2.983 6.99,-7.452 0,-4.47 -2.301,-8.008 -6.1,-8.669"
   id="path201"
   inkscape:connector-curvature="0" />
	<path
   d="m 1132.838,125.415 c 1.777,-1.25 2.301,-3.793 0.986,-5.949 -1.311,-2.153 -3.408,-3.083 -5.74,-1.853 -2.072,1.099 -2.984,4.213 -1.67,6.365 1.311,2.156 4.596,2.721 6.424,1.437"
   id="path203"
   inkscape:connector-curvature="0" />
	<path
   d="m 1076.701,133.048 c 2.32,-1.239 2.752,-3.649 2.262,-5.867 -0.564,-2.567 -4.029,-3.146 -6.348,-1.908 -2.324,1.238 -3.521,3.634 -2.049,6.392 1.071,2.001 2.872,3.123 6.135,1.383"
   id="path205"
   inkscape:connector-curvature="0" />
	<path
   d="m 1091.236,131.392 c -3.352,-0.585 -6.09,3.103 -6.09,6.206 0,3.103 2.359,5.472 5.473,4.986 2.646,-0.417 4.855,-2.072 4.855,-5.175 10e-4,-3.104 -1.601,-5.558 -4.238,-6.017"
   id="path207"
   inkscape:connector-curvature="0" />
	<path
   d="m 1102.771,123.048 c -1.258,-2.062 -3.268,-2.955 -5.502,-1.775 -1.988,1.052 -2.859,4.038 -1.602,6.103 1.256,2.064 4.402,2.605 6.154,1.376 1.708,-1.2 2.208,-3.637 0.95,-5.704"
   id="path209"
   inkscape:connector-curvature="0" />
	<path
   d="m 1081.352,142.57 c -4.125,-0.985 -8.023,1.4 -8.363,5.698 -0.291,3.649 1.213,7.108 5.34,8.093 4.127,0.983 7.898,-0.36 9.348,-3.723 1.837,-4.275 -2.197,-9.079 -6.325,-10.068"
   id="path211"
   inkscape:connector-curvature="0" />
	<path
   d="m 1103.334,145.403 c -2.006,-0.563 -3.703,1.645 -3.703,3.728 0,2.087 1.227,3.817 3.703,3.817 1.801,0 3.256,-0.845 3.256,-3.774 0,-2.08 -1.526,-3.283 -3.256,-3.771"
   id="path213"
   inkscape:connector-curvature="0" />
	<path
   d="m 1055.85,131.392 c -3.355,-0.585 -6.09,3.103 -6.09,6.206 0,3.103 2.359,5.472 5.477,4.986 2.643,-0.417 4.85,-2.072 4.85,-5.175 -10e-4,-3.104 -1.599,-5.558 -4.237,-6.017"
   id="path215"
   inkscape:connector-curvature="0" />
	<path
   d="m 1062.055,119.465 c -1.309,-2.152 -3.408,-3.083 -5.738,-1.852 -2.072,1.098 -2.984,4.214 -1.672,6.365 1.311,2.154 4.598,2.721 6.426,1.436 1.777,-1.249 2.3,-3.792 0.984,-5.949"
   id="path217"
   inkscape:connector-curvature="0" />
	<path
   d="m 1065.166,143.027 c -2.131,-0.599 -3.936,1.747 -3.936,3.961 0,2.213 1.303,4.053 3.936,4.053 1.912,0 3.459,-0.894 3.459,-4.007 0,-2.214 -1.619,-3.492 -3.459,-4.007"
   id="path219"
   inkscape:connector-curvature="0" />
	<path
   d="m 1109.732,61.266 c -9.043,0.772 -11.436,4.559 -14.91,4.559 -3.473,0 -5.857,-3.786 -14.902,-4.559 -17.957,-1.548 -26.596,12.288 -26.596,26.016 0,14.588 10.215,26.412 22.816,26.412 11.961,0 13.074,-4.965 18.682,-4.965 5.615,0 6.727,4.965 18.688,4.965 12.602,0 22.816,-11.824 22.816,-26.412 0,-13.728 -8.638,-27.564 -26.594,-26.016"
   id="path221"
   inkscape:connector-curvature="0"
   style="fill:#ffffff" />
	<path
   d="m 1152.49,49.094 c -8.381,-10.895 -42.719,-49.093 -57.668,-49.093 -14.939,0 -49.283,38.198 -57.662,49.093 -20.623,26.815 -21.502,39.376 -19.949,45.229 2.807,10.561 14.656,11.646 32.396,11.736 2.447,6.37 2.391,16.103 1.662,19.248 -0.137,0.301 -0.316,0.645 -0.514,1.039 -7.379,14.683 -3.875,24.918 8.896,34.688 2.432,1.861 5.168,3.401 5.168,3.401 0,0 2.268,-0.792 4.592,-2.953 1.865,-1.73 3.803,-5.129 4.238,-7.558 1.973,10.053 11.854,13.799 11.854,13.799 0,0 8.248,-2.751 9.318,-11.282 1.076,8.531 9.324,11.282 9.324,11.282 0,0 9.879,-3.746 11.854,-13.799 0.434,2.429 2.371,5.827 4.236,7.558 2.326,2.161 4.59,2.953 4.59,2.953 0,0 2.74,-1.54 5.168,-3.401 12.775,-9.771 16.279,-20.006 8.9,-34.688 -0.197,-0.395 -0.379,-0.738 -0.514,-1.039 -0.732,-3.146 -0.789,-12.878 1.662,-19.248 17.74,-0.09 29.588,-1.176 32.395,-11.736 1.556,-5.853 0.677,-18.414 -19.946,-45.229 m 11.549,41.471 c -2.215,8.346 -27.553,9.8 -27.553,9.8 0,0 -8.443,18.267 -5.854,27.358 1.01,3.544 11.537,16.124 -5.826,27.13 0,0 -9.773,-6.126 -10.303,-18.576 0.076,1.291 0.85,18.104 -10.156,22.176 -0.012,-0.002 -9.512,-2.015 -9.525,-21.008 -0.01,18.993 -9.514,21.006 -9.52,21.008 -11.006,-4.071 -10.234,-20.885 -10.158,-22.176 -0.527,12.45 -10.301,18.576 -10.301,18.576 -17.365,-11.006 -6.838,-23.586 -5.83,-27.13 2.594,-9.092 -5.854,-27.358 -5.854,-27.358 0,0 -25.336,-1.454 -27.553,-9.8 -4.82,-18.151 57.529,-84.94 69.215,-84.94 11.685,0 74.04,66.789 69.218,84.94"
   id="path223"
   inkscape:connector-curvature="0" />
	<path
   d="m 1109.732,61.266 c -9.043,0.772 -11.436,4.56 -14.91,4.56 -3.473,0 -5.857,-3.787 -14.902,-4.56 -17.957,-1.548 -26.596,12.288 -26.596,26.017 0,14.587 10.215,26.411 22.816,26.411 11.961,0 13.074,-4.965 18.682,-4.965 5.615,0 6.727,4.965 18.688,4.965 12.602,0 22.816,-11.824 22.816,-26.411 0,-13.729 -8.638,-27.565 -26.594,-26.017 m 2.678,44.703 c -7.758,0 -14.445,-4.86 -17.588,-11.886 -3.137,7.025 -9.828,11.886 -17.58,11.886 -10.764,0 -19.494,-9.366 -19.494,-20.912 0,-11.548 8.73,-20.911 19.494,-20.911 7.752,0 14.443,4.861 17.58,11.888 3.143,-7.026 9.83,-11.888 17.588,-11.888 10.766,0 19.492,9.363 19.492,20.911 0,11.546 -8.726,20.912 -19.492,20.912"
   id="path225"
   inkscape:connector-curvature="0" />
	<path
   d="m 1078.738,89.176 c -6.369,0 -11.533,-4.877 -11.533,-10.89 0,-6.017 5.164,-10.893 11.533,-10.893 6.369,0 11.533,4.876 11.533,10.893 0,6.013 -5.164,10.89 -11.533,10.89"
   id="path227"
   inkscape:connector-curvature="0" />
	<path
   d="m 1110.912,89.176 c -6.369,0 -11.535,-4.877 -11.535,-10.89 0,-6.017 5.166,-10.893 11.535,-10.893 6.371,0 11.531,4.876 11.531,10.893 0,6.013 -5.16,10.89 -11.531,10.89"
   id="path229"
   inkscape:connector-curvature="0" />
</g>
<path
   style="fill:#000000;fill-opacity:1;fill-rule:nonzero;stroke:#ffffff;stroke-width:0.21525320000000001;stroke-linecap:round;stroke-linejoin:round;stroke-miterlimit:4;stroke-opacity:1;stroke-dasharray:none;stroke-dashoffset:0"
   d="m 67.18788,166.76309 c -4.78395,-2.5788 -8.29398,-6.65258 -9.67177,-11.22515 -0.52115,-1.72959 -0.66325,-1.83729 -0.95916,-0.72695 -0.37717,1.41519 -1.79569,4.01451 -2.95156,5.40849 -1.13441,1.36809 -2.83606,2.72455 -4.43309,3.53383 l -1.0437,0.52888 -1.43396,-0.8543 c -4.75884,-2.83513 -9.96436,-7.64159 -12.62471,-11.65688 -2.62686,-3.96475 -3.61784,-7.10801 -3.63069,-11.51605 -0.0124,-4.23486 0.87149,-7.68533 3.34692,-13.06627 l 1.11879,-2.43196 0.0921,-3.81407 c 0.12753,-5.27911 -0.32859,-9.32879 -1.51603,-13.46 l -0.44856,-1.56059 -2.92655,-0.003 c -6.90433,-0.007 -13.88174,-0.67137 -18.01278,-1.71468 -6.1698896,-1.55825 -9.7785396,-4.593858 -11.33050961,-9.531291 -0.707,-2.249222 -0.69011,-7.102697 0.035,-10.061092 C 2.6171404,77.188499 6.6312004,69.068549 13.46034,58.996875 21.08361,47.754013 30.47913,36.81463 43.78395,23.690496 58.28375,9.3876197 69.78113,1.2038523 76.672636,0.28052201 80.984377,-0.29716902 86.593764,2.1203189 94.589594,8.0022273 103.7984,14.776427 116.87663,27.363785 128.45102,40.592726 c 7.72155,8.825343 13.42868,16.504406 18.41615,24.779327 6.16883,10.234894 9.17266,18.374152 9.16049,24.821405 -0.008,4.27354 -1.13644,7.214101 -3.76524,9.812262 -3.98974,3.94326 -10.23104,5.48352 -23.79749,5.87288 l -5.26481,0.1511 -0.4714,1.50677 c -0.79176,2.53078 -1.39057,6.63748 -1.52227,10.43978 -0.16698,4.82133 0.0894,6.72845 1.23314,9.17379 1.22937,2.62834 2.44719,6.07433 2.91972,8.26172 0.57966,2.68329 0.52972,7.46407 -0.10231,9.79402 -1.67074,6.15916 -7.05515,12.53755 -14.95954,17.72115 l -2.12222,1.39172 -0.99895,-0.48087 c -3.1413,-1.51212 -6.14734,-4.96465 -7.235961,-8.31071 -0.229156,-0.70436 -0.481868,-1.36092 -0.56158,-1.45903 -0.07971,-0.0981 -0.359809,0.52906 -0.622439,1.39372 -1.243643,4.09441 -3.988044,7.59357 -8.120131,10.3533 -2.606322,1.74071 -3.129086,1.86908 -4.592166,1.12768 -3.855926,-1.95394 -6.595968,-5.30087 -7.535851,-9.20495 -0.392562,-1.63062 -0.418646,-1.6222 -0.854052,0.27556 -0.816076,3.55696 -3.75698,7.05729 -7.51548,8.94507 -0.57606,0.28934 -1.17861,0.52387 -1.339,0.52118 -0.16039,-0.003 -0.88568,-0.32512 -1.61175,-0.71651 l 0,0 z m 3.27008,-9.0861 c 0.70337,-0.42178 1.6491,-1.12404 2.10163,-1.56058 2.474264,-2.38688 4.487876,-7.02945 5.106381,-11.77323 0.362316,-2.77889 0.54018,-3.07609 0.701165,-1.17162 0.335595,3.97007 2.087259,8.87973 4.129691,11.57491 1.426475,1.88237 3.917307,3.69739 5.074089,3.69739 0.951464,0 3.106928,-1.37678 4.722578,-3.0165 3.125489,-3.17205 4.93387,-7.96711 5.519077,-14.63427 0.08833,-1.00631 0.192473,-1.63592 0.231433,-1.39914 0.20707,1.25843 0.83729,3.41117 1.405341,4.80041 0.610575,1.49325 0.662145,1.55394 1.034195,1.21724 0.58347,-0.52803 1.90387,-0.93909 3.0508,-0.94975 2.14931,-0.02 4.87134,1.88678 5.66675,3.96953 0.73331,1.92014 -0.003,4.4669 -1.52839,5.28301 -0.60425,0.32338 -0.59449,0.57832 0.0382,0.99842 0.39188,0.2602 0.6088,0.16051 2.24836,-1.03328 2.37237,-1.72736 4.91539,-4.34248 6.00301,-6.17321 0.47854,-0.80551 0.87026,-1.50736 0.87047,-1.55967 2.2e-4,-0.0523 -0.57589,-0.0625 -1.28025,-0.0227 -3.25216,0.18377 -5.96465,-1.7976 -6.8105,-4.97482 -0.16467,-0.61855 -0.29941,-1.56052 -0.29941,-2.09328 0,-3.27553 2.38478,-7.05531 5.23476,-8.2969 l 1.36491,-0.59462 -0.6059,-1.41989 c -0.33324,-0.78094 -0.60852,-1.64087 -0.61172,-1.91096 -0.003,-0.27009 -0.12691,-0.5254 -0.27489,-0.56736 -0.14799,-0.042 -0.68676,-0.18991 -1.19728,-0.32878 -1.1585,-0.31513 -2.51956,-1.52027 -2.85093,-2.52435 -0.13832,-0.4191 -0.21096,-1.3087 -0.16143,-1.9769 0.1637,-2.20822 1.88183,-3.93204 3.9747,-3.98784 0.82915,-0.0221 0.96571,-0.094 1.06985,-0.56348 1.261,-5.68437 4.87409,-15.80169 5.76384,-16.13984 0.24794,-0.0942 2.02045,-0.33298 3.93892,-0.53056 12.13401,-1.249681 20.8834,-4.446236 22.92952,-8.377203 0.69523,-1.335689 0.78112,-4.389121 0.19294,-6.859915 -1.82236,-7.655313 -8.40551,-18.84406 -19.15789,-32.560813 C 113.38747,33.508939 93.566017,13.749748 83.236123,7.5413004 79.677962,5.4027829 77.980957,5.1442937 75.28849,6.3307097 66.20088,10.3351 44.29919,31.641207 28.34141,52.001146 17.30183,66.08613 10.65892,77.437981 8.9521104,85.134874 c -0.55011,2.480742 -0.45323,5.012651 0.24717,6.459486 1.9403996,4.008336 11.0927196,7.26285 24.1827596,8.59925 1.63562,0.16699 3.00585,0.33762 3.04495,0.37919 0.0391,0.0416 0.70131,1.67383 1.47157,3.62725 1.57587,3.9965 2.47608,6.72478 3.39961,10.30319 0.34726,1.34555 0.67661,2.51963 0.73188,2.60905 0.0553,0.0894 0.39466,0.22143 0.7542,0.29334 0.94612,0.18923 2.47531,1.85418 2.91283,3.17145 0.70941,2.13584 -0.21495,4.30988 -2.14606,5.04738 -0.74493,0.28449 -1.01872,0.51556 -1.11223,0.93872 -0.25124,1.13687 -0.37334,1.46222 -1.28099,3.41344 -0.50941,1.0951 -0.84338,1.99109 -0.74215,1.99109 0.43409,0 1.57276,1.2168 2.09092,2.23439 0.39654,0.77874 0.59108,1.55824 0.66313,2.65712 0.0897,1.36836 0.0329,1.69614 -0.47286,2.72998 -0.65183,1.3323 -1.87941,2.28939 -3.44063,2.68251 l -0.95141,0.23957 0.32369,1.23963 c 0.37305,1.4287 1.24849,3.27238 2.23388,4.7046 1.00915,1.46675 3.6422,3.99326 5.59825,5.37172 l 1.71456,1.20828 1.4244,-1.14793 c 2.81373,-2.2676 5.80429,-6.24235 7.12246,-9.46646 0.30759,-0.75233 0.77518,-2.19121 1.03909,-3.19752 l 0.47984,-1.82964 0.12123,0.96863 c 0.0667,0.53275 0.17792,1.50841 0.24722,2.16813 l 0.126,1.19948 1.06867,-0.52888 c 1.45907,-0.72208 3.6188,-0.87153 5.17726,-0.35826 4.9096,1.61696 7.71226,6.88731 5.50881,10.3592 -1.06318,1.67522 -2.08953,2.42997 -4.2001,3.08864 l -1.14169,0.35629 0.81881,0.5529 c 2.18698,1.47675 2.72763,1.53417 4.49078,0.4769 l 0,0 z"
   id="path3264"
   inkscape:connector-curvature="0" /><path
   style="fill:#000000;fill-opacity:1;fill-rule:nonzero;stroke:#ffffff;stroke-width:0.21525320000000001;stroke-linecap:round;stroke-linejoin:round;stroke-miterlimit:4;stroke-opacity:1;stroke-dasharray:none;stroke-dashoffset:0"
   d="m 95.414665,135.80967 c -2.27205,-0.83162 -3.62298,-4.40235 -2.495125,-6.59501 0.777304,-1.51116 2.576857,-2.7302 4.399025,-2.97996 1.260716,-0.1728 3.115685,0.38319 3.840045,1.15099 0.96179,1.01945 1.30208,3.10763 0.78672,4.82775 -0.71415,2.38361 -4.359429,4.39095 -6.530665,3.59623 z"
   id="path3266"
   inkscape:connector-curvature="0" /><path
   style="fill:#000000;fill-opacity:1;fill-rule:nonzero;stroke:#ffffff;stroke-width:0.21525320000000001;stroke-linecap:round;stroke-linejoin:round;stroke-miterlimit:4;stroke-opacity:1;stroke-dasharray:none;stroke-dashoffset:0"
   d="m 85.513018,152.7013 c -1.324864,-0.36791 -2.461194,-1.98909 -2.470685,-3.52488 -0.0064,-1.03171 0.915475,-2.81699 1.691208,-3.27522 1.456478,-0.86037 3.742074,0.0311 4.674486,1.82312 0.698211,1.34194 0.140453,3.96842 -0.987626,4.65072 -0.521094,0.31518 -2.249034,0.50909 -2.907383,0.32626 z"
   id="path3268"
   inkscape:connector-curvature="0" /><path
   style="fill:#000000;fill-opacity:1;fill-rule:nonzero;stroke:#ffffff;stroke-width:0.21525320000000001;stroke-linecap:round;stroke-linejoin:round;stroke-miterlimit:4;stroke-opacity:1;stroke-dasharray:none;stroke-dashoffset:0"
   d="m 71.42034,142.1878 c -3.1128,-1.40652 -3.73808,-5.60063 -1.29564,-8.69054 3.07824,-3.89427 8.395048,-1.62486 8.447274,3.60562 0.01545,1.54763 -0.391756,2.79299 -1.195039,3.65477 -1.30939,1.40473 -4.380815,2.14217 -5.956595,1.43015 l 0,0 z"
   id="path3270"
   inkscape:connector-curvature="0" /><path
   style="fill:#000000;fill-opacity:1;fill-rule:nonzero;stroke:#ffffff;stroke-width:0.21525320000000001;stroke-linecap:round;stroke-linejoin:round;stroke-miterlimit:4;stroke-opacity:1;stroke-dasharray:none;stroke-dashoffset:0"
   d="m 81.70746,129.07594 c -2.117259,-0.55232 -3.368234,-2.26753 -3.138746,-4.30354 0.216485,-1.92065 1.366933,-3.2951 3.162857,-3.77869 3.164727,-0.85218 6.158953,3.76543 4.281387,6.60262 -0.907933,1.37198 -2.552097,1.93701 -4.305498,1.47961 z"
   id="path3272"
   inkscape:connector-curvature="0" /><path
   style="fill:#000000;fill-opacity:1;fill-rule:nonzero;stroke:#ffffff;stroke-width:0.21525320000000001;stroke-linecap:round;stroke-linejoin:round;stroke-miterlimit:4;stroke-opacity:1;stroke-dasharray:none;stroke-dashoffset:0"
   d="m 55.1357,132.99173 c -0.94172,-0.82684 -1.79799,-2.54733 -1.80093,-3.61861 -0.003,-1.24927 0.91281,-2.79161 2.16154,-3.63857 1.84655,-1.25244 4.58628,-1.17387 5.87227,0.16842 0.65673,0.68547 1.12191,2.66602 0.88456,3.76608 -0.52406,2.42894 -2.61465,4.02069 -5.28075,4.02069 -0.86784,0 -1.1744,-0.1165 -1.83669,-0.69801 z"
   id="path3274"
   inkscape:connector-curvature="0" /><path
   style="fill:#000000;fill-opacity:1;fill-rule:nonzero;stroke:#ffffff;stroke-width:0.21525320000000001;stroke-linecap:round;stroke-linejoin:round;stroke-miterlimit:4;stroke-opacity:1;stroke-dasharray:none;stroke-dashoffset:0"
   d="m 47.19795,150.75547 c -0.72522,-0.17618 -1.75029,-1.07312 -2.12224,-1.85695 -0.42823,-0.90243 -0.45895,-2.70002 -0.0624,-3.6492 0.47436,-1.13532 1.72429,-2.08844 2.73879,-2.08844 1.68176,0 3.68995,1.57336 3.97973,3.118 0.34028,1.81389 -0.45047,3.78513 -1.73344,4.32119 -0.72093,0.30122 -1.92517,0.36805 -2.80049,0.1554 z"
   id="path3276"
   inkscape:connector-curvature="0" /><path
   style="fill:#000000;fill-opacity:1;fill-rule:nonzero;stroke:#ffffff;stroke-width:0.21525320000000001;stroke-linecap:round;stroke-linejoin:round;stroke-miterlimit:4;stroke-opacity:1;stroke-dasharray:none;stroke-dashoffset:0"
   d="m 57.49163,113.43652 c -2.49318,-0.2336 -4.13536,-0.72096 -6.84963,-2.03283 -4.82776,-2.33336 -8.57187,-6.24538 -11.09327,-11.590741 -3.54417,-7.513637 -3.71039,-16.442312 -0.4546,-24.418806 0.99975,-2.449329 2.55923,-4.852265 4.48219,-6.906407 3.67955,-3.930564 7.20839,-5.862483 12.42364,-6.801509 3.03699,-0.546823 8.41024,-0.358377 11.43179,0.400927 2.47257,0.621348 2.94062,0.800114 6.45759,2.466397 2.42695,1.149846 2.6806,1.2238 4.197442,1.2238 1.52951,0 1.761542,-0.06944 4.412691,-1.320549 4.931722,-2.327341 8.196917,-3.089801 13.238072,-3.091239 6.732345,-0.0019 11.941555,2.030916 16.257405,6.344279 3.37861,3.376663 5.59799,7.627576 6.81077,13.045091 0.67468,3.013791 0.72893,9.605017 0.10252,12.455884 -1.84622,8.402373 -6.58821,14.918713 -13.25975,18.221243 -3.46572,1.71559 -7.031779,2.34352 -11.435121,2.01356 -3.996733,-0.29949 -6.032116,-0.87002 -9.776617,-2.74046 -3.290456,-1.64364 -4.381919,-1.98479 -6.34997,-1.98479 -1.973833,0 -3.069537,0.3448 -6.349972,1.99825 -1.30228,0.65639 -3.14269,1.43383 -4.08981,1.72764 -2.95199,0.91576 -6.87141,1.29794 -10.15537,0.99026 z m 7.65595,-7.96634 c 3.35681,-0.85853 6.88267,-3.02335 9.361041,-5.747534 1.294837,-1.423262 2.673488,-3.418496 3.139544,-4.54365 0.320779,-0.77443 0.567689,-0.845468 0.766075,-0.220411 0.322764,1.01694 2.773297,4.320765 4.210321,5.676375 4.304442,4.0606 9.509027,5.90387 14.955181,5.29659 5.412318,-0.60351 10.011728,-3.2471 13.337428,-7.665929 7.81612,-10.385181 4.70631,-25.969892 -6.37053,-31.925754 -5.414834,-2.911479 -11.811858,-2.988332 -17.297089,-0.207804 -3.498555,1.773458 -6.369964,4.604468 -8.427582,8.309011 -0.345159,0.621423 -0.680907,1.129959 -0.746107,1.130079 -0.0652,1.21e-4 -0.338074,-0.45163 -0.606383,-1.00389 C 75.652864,70.828121 71.52077,67.06573 67.39009,65.38969 61.90131,63.162599 55.19308,63.86717 50.23353,67.191653 c -9.60598,6.439074 -12.17388,20.32333 -5.57799,30.159301 4.60149,6.861856 12.76365,10.095816 20.49204,8.119226 l 0,0 z"
   id="path3278"
   inkscape:connector-curvature="0" /><path
   inkscape:connector-curvature="0"
   id="path3068"
   d="m 59.905978,88.84854 c -4.165075,-0.776697 -7.892942,-4.129341 -8.902886,-8.006779 -1.128035,-4.330817 0.620906,-8.653347 4.575429,-11.308233 2.079699,-1.396214 3.835999,-1.92725 6.363164,-1.92397 2.218782,0.0029 3.580165,0.30495 5.304843,1.177062 2.216841,1.120981 3.665091,2.476259 4.836021,4.525554 1.34425,2.352632 1.71689,4.850977 1.08524,7.276041 -1.49009,5.720832 -7.340095,9.364598 -13.261811,8.260325 l 0,0 z"
   style="fill:#000000;fill-opacity:1;fill-rule:nonzero;stroke:#ffffff;stroke-width:0.2152532;stroke-linecap:round;stroke-linejoin:round;stroke-miterlimit:4;stroke-opacity:1;stroke-dasharray:none;stroke-dashoffset:0" /><path
   style="fill:#000000;fill-opacity:1;fill-rule:nonzero;stroke:#ffffff;stroke-width:0.21525320000000001;stroke-linecap:round;stroke-linejoin:round;stroke-miterlimit:4;stroke-opacity:1;stroke-dasharray:none;stroke-dashoffset:0"
   d="m 92.056299,88.84854 c -4.165075,-0.776697 -7.892942,-4.129341 -8.902886,-8.006779 -1.128035,-4.330817 0.620906,-8.653347 4.575429,-11.308233 2.079699,-1.396214 3.835999,-1.92725 6.363164,-1.92397 2.218782,0.0029 3.580165,0.30495 5.304843,1.177062 2.216841,1.120981 3.665091,2.476259 4.836021,4.525554 1.34425,2.352632 1.71689,4.850977 1.08524,7.276041 -1.49009,5.720832 -7.340095,9.364598 -13.261811,8.260325 l 0,0 z"
   id="path3282"
   inkscape:connector-curvature="0" /></svg>